<svg width="732" height="255" viewBox="0 0 732 255" fill="none" xmlns="http://www.w3.org/2000/svg">
<path d="M207 127.5C207 171.225 171.473 207 127.5 207C83.775 207 48 171.225 48 127.5C48 109.364 54.2109 92.7188 64.3969 79.3031C78.8062 60.1734 101.911 48 127.5 48C154.828 48 179.175 61.9125 193.336 83.0297L126.755 145.139L109.861 127.003L157.809 82.2844C149.363 76.3219 138.68 72.8438 127.5 72.8438C108.37 72.8438 91.4766 82.7812 81.7875 97.6875C76.0734 106.383 72.8438 116.569 72.8438 127.5C72.8438 157.561 97.4391 182.156 127.5 182.156C157.561 182.156 182.156 157.561 182.156 127.5L204.267 106.88C206.006 113.339 207 120.295 207 127.5Z" fill="#7062FF"/>
<path d="M50.9116 106.3C49.0201 113.045 48 120.15 48 127.5C48 171.225 83.775 207 127.5 207C171.473 207 207 171.225 207 127.5C207 120.295 206.006 113.339 204.267 106.88L182.156 127.5C182.156 157.561 157.561 182.156 127.5 182.156C97.4391 182.156 72.8438 157.561 72.8438 127.5C72.8438 120.003 74.3631 112.856 77.1612 106.3H50.9116Z" fill="url(#paint0_radial)"/>
<path d="M329.374 131.631C329.374 136.015 329.204 138.656 328.864 139.556H270.479C271.841 144.502 274.394 148.38 278.139 151.19C281.884 154 286.423 155.405 291.756 155.405C299.813 155.517 306.452 152.426 311.672 146.132L326.14 159.452C317.856 169.793 305.884 174.964 290.224 174.964C277.855 174.964 267.642 171.03 259.585 163.161C251.528 155.293 247.5 145.007 247.5 132.305C247.5 119.941 251.358 109.824 259.075 101.955C266.905 93.9746 276.777 89.9841 288.692 89.9841C300.721 89.9841 310.48 93.9184 317.97 101.787C325.573 109.543 329.374 119.491 329.374 131.631ZM289.373 109.374C284.721 109.374 280.749 110.611 277.458 113.084C274.167 115.557 271.898 119.098 270.65 123.706H307.246C304.75 114.152 298.792 109.374 289.373 109.374Z" fill="white"/>
<path d="M403.175 91.333H425.304V173.615H404.197V163.667H403.686C397.899 171.198 389.615 174.964 378.834 174.964C367.26 174.964 357.727 171.086 350.238 163.33C342.862 155.461 339.174 145.232 339.174 132.643C339.174 120.278 342.862 110.105 350.238 102.124C357.727 94.0308 367.089 89.9841 378.324 89.9841C388.65 89.9841 396.764 93.5249 402.665 100.607H403.175V91.333ZM382.92 155.236C388.82 155.236 393.813 153.157 397.899 148.998C401.984 144.839 404.026 139.443 404.026 132.811C404.026 126.179 402.041 120.671 398.069 116.287C394.097 111.904 389.104 109.712 383.09 109.712C376.962 109.712 371.855 111.847 367.77 116.119C363.685 120.278 361.642 125.842 361.642 132.811C361.642 139.443 363.628 144.839 367.6 148.998C371.572 153.157 376.678 155.236 382.92 155.236Z" fill="white"/>
<path d="M470.653 174.964C457.603 174.964 446.369 170.973 436.95 162.993L447.844 147.649C454.653 154.056 462.312 157.26 470.823 157.26C474.001 157.26 476.497 156.642 478.313 155.405C480.128 154.169 481.036 152.539 481.036 150.515C481.036 148.717 479.958 147.199 477.802 145.963C475.646 144.726 471.674 143.209 465.887 141.41C457.83 138.713 451.532 135.397 446.993 131.462C442.567 127.416 440.354 121.795 440.354 114.601C440.354 107.295 443.191 101.393 448.865 96.8971C454.539 92.2885 461.688 89.9841 470.313 89.9841C481.66 89.9841 491.76 93.4125 500.611 100.269L489.888 116.456C483.646 110.611 477.008 107.688 469.972 107.688C467.93 107.688 466.057 108.25 464.355 109.374C462.653 110.386 461.802 111.904 461.802 113.927C461.802 115.501 462.766 116.962 464.695 118.311C466.738 119.547 469.972 121.008 474.398 122.695C478.937 124.381 482.285 125.673 484.441 126.573C486.597 127.36 489.15 128.596 492.1 130.282C495.051 131.856 497.093 133.429 498.228 135.003C499.476 136.464 500.554 138.432 501.462 140.905C502.484 143.378 502.994 146.188 502.994 149.335C502.994 156.979 500.214 163.161 494.654 167.882C489.207 172.603 481.206 174.964 470.653 174.964Z" fill="white"/>
<path d="M568.296 91.333H591.446L546.679 207H523.87L538.508 168.557L505.486 91.333H528.636L549.062 142.253H549.232L568.296 91.333Z" fill="white"/>
<path d="M605.244 173.615V109.543H596.563V91.333H605.244V77.1697C605.244 67.6151 607.514 60.3648 612.053 55.4189C616.592 50.473 623.06 48 631.457 48C639.741 48 646.89 50.0233 652.905 54.07L648.479 71.2683C643.713 68.9077 639.571 67.7275 636.053 67.7275C630.379 67.7275 627.542 71.3807 627.542 78.6872V91.333H646.096V109.543H627.542V173.615H605.244Z" fill="white"/>
<path d="M670.042 79.6988C666.297 79.6988 663.063 78.4062 660.34 75.8208C657.616 73.123 656.255 69.9194 656.255 66.21C656.255 62.5005 657.616 59.3531 660.34 56.7678C663.063 54.07 666.297 52.7211 670.042 52.7211C673.9 52.7211 677.191 54.07 679.915 56.7678C682.638 59.3531 684 62.5005 684 66.21C684 69.9194 682.638 73.123 679.915 75.8208C677.191 78.4062 673.9 79.6988 670.042 79.6988ZM658.808 173.615V91.333H681.106V173.615H658.808Z" fill="white"/>
<defs>
<radialGradient id="paint0_radial" cx="0" cy="0" r="1" gradientUnits="userSpaceOnUse" gradientTransform="translate(212.3 122.2) rotate(-175.515) scale(135.565 330.276)">
<stop stop-color="#FF5454"/>
<stop offset="1" stop-color="#7062FF"/>
</radialGradient>
</defs>
</svg>
